<?xml version="1.0" standalone="no"?><!DOCTYPE svg PUBLIC "-//W3C//DTD SVG 1.1//EN" "http://www.w3.org/Graphics/SVG/1.1/DTD/svg11.dtd"><svg t="1749389621803" class="icon" viewBox="0 0 1024 1024" version="1.1" xmlns="http://www.w3.org/2000/svg" p-id="5633" xmlns:xlink="http://www.w3.org/1999/xlink" width="200" height="200"><path d="M 631.7 64 a 55.7 55.7 0 0 1 53.8 69.9 L 653 256 h 230.5 a 78.3 78.3 0 0 1 77.1 69.6 l 0.4 7.9 l -0.3 7.9 a 75.6 75.6 0 0 1 -76.2 68.6 l -272.4 0.3 l -60.9 229.8 h 332.3 a 78.3 78.3 0 0 1 77.1 69.6 l 0.4 7.9 l -0.3 7.9 a 75.6 75.6 0 0 1 -76.2 68.6 l -374.3 0.3 l -31.3 118 a 64 64 0 0 1 -54 47.2 L 417.1 960 h -23.9 a 56.2 56.2 0 0 1 -54.3 -70.7 l 25.3 -94.8 l -222.7 0.3 a 78.3 78.3 0 0 1 -77.1 -69.6 L 64 717.2 A 76.4 76.4 0 0 1 140.5 640 h 265 l 61.4 -229.6 l -325.3 0.3 A 78.3 78.3 0 0 1 64.4 341.1 L 64 333.2 A 76.4 76.4 0 0 1 140.5 256 h 367.6 l 38.7 -144.5 a 64 64 0 0 1 54.1 -47 L 608.5 64 z" fill="#0a7ea5" p-id="5634"></path>
    <rect x="123" y="65" width="0" height="0" fill="rgb(255, 255, 255)"/>
    <polyline points="130,51 199.7,46.1" fill="rgb(255, 255, 255)"/></svg>